<?xml version="1.0" encoding="UTF-8" standalone="no"?>
<svg
   xmlns:dc="http://purl.org/dc/elements/1.1/"
   xmlns:cc="http://creativecommons.org/ns#"
   xmlns:rdf="http://www.w3.org/1999/02/22-rdf-syntax-ns#"
   xmlns:svg="http://www.w3.org/2000/svg"
   xmlns="http://www.w3.org/2000/svg"
   viewBox="0 0 634.37335 92.653336"
   height="92.653336"
   width="634.37335"
   xml:space="preserve"
   id="svg2"
   version="1.1"><metadata
     id="metadata8"><rdf:RDF><cc:Work
         rdf:about=""><dc:format>image/svg+xml</dc:format><dc:type
           rdf:resource="http://purl.org/dc/dcmitype/StillImage" /></cc:Work></rdf:RDF></metadata><defs
     id="defs6" /><g
     transform="matrix(1.3333333,0,0,-1.3333333,0,92.653333)"
     id="g10"><g
       transform="scale(0.1)"
       id="g12"><path
         id="path14"
         style="fill:#3c3e43;fill-opacity:1;fill-rule:nonzero;stroke:none"
         d="M 1079.56,457.895 V 41.3789 h 124.82 c 134.47,0 219.29,91.7071 219.29,206.8751 v 1.375 c 0,114.476 -84.82,208.266 -219.29,208.266 z m -35.86,33.101 h 160.68 c 151.71,0 256.52,-104.137 256.52,-239.98 v -1.387 C 1460.9,113.777 1356.09,8.26953 1204.38,8.26953 H 1043.7 V 490.996" /><path
         id="path16"
         style="fill:#3c3e43;fill-opacity:1;fill-rule:nonzero;stroke:none"
         d="m 1567.88,490.996 h 35.86 V 8.26953 h -35.86 V 490.996" /><path
         id="path18"
         style="fill:#3c3e43;fill-opacity:1;fill-rule:nonzero;stroke:none"
         d="m 1710.71,248.254 v 1.375 c 0,130.344 94.49,249.641 238.61,249.641 78.61,0 128.26,-23.454 176.54,-63.446 l -23.45,-26.894 c -37.93,33.101 -82.06,57.925 -155.16,57.925 -117.23,0 -199.29,-99.3 -199.29,-215.839 v -1.387 c 0,-124.816 77.92,-217.9102 206.88,-217.9102 61.37,0 118.61,25.5156 153.78,55.1679 V 225.496 h -161.37 v 33.109 H 2143.1 V 72.4023 C 2099.65,33.7891 2032.08,0 1953.45,0 1801.06,0 1710.71,112.41 1710.71,248.254" /><path
         id="path20"
         style="fill:#3c3e43;fill-opacity:1;fill-rule:nonzero;stroke:none"
         d="m 2250.47,490.996 h 35.86 V 8.26953 h -35.86 V 490.996" /><path
         id="path22"
         style="fill:#3c3e43;fill-opacity:1;fill-rule:nonzero;stroke:none"
         d="m 2541.98,457.895 h -168.26 v 33.101 H 2746.1 V 457.895 H 2577.84 V 8.26953 h -35.86 V 457.895" /><path
         id="path24"
         style="fill:#3c3e43;fill-opacity:1;fill-rule:nonzero;stroke:none"
         d="M 3073.51,175.852 2946.63,455.137 2819.06,175.852 Z m -143.44,318.586 h 34.49 L 3189.37,8.26953 h -39.31 L 3088.69,143.438 H 2803.88 L 2742.51,8.26953 h -37.24 l 224.8,486.16847" /><path
         id="path26"
         style="fill:#3c3e43;fill-opacity:1;fill-rule:nonzero;stroke:none"
         d="m 3296.74,490.996 h 35.86 V 41.3789 h 283.43 V 8.26953 H 3296.74 V 490.996" /><path
         id="path28"
         style="fill:#3c3e43;fill-opacity:1;fill-rule:nonzero;stroke:none"
         d="m 3825.01,490.996 h 106.2 V 299.98 h 195.85 v 191.016 h 106.19 V 8.26953 H 4127.06 V 202.051 H 3931.21 V 8.26953 h -106.2 V 490.996" /><path
         id="path30"
         style="fill:#3c3e43;fill-opacity:1;fill-rule:nonzero;stroke:none"
         d="m 4554.41,256.531 c 51.72,0 81.37,27.578 81.37,68.274 v 1.371 c 0,45.523 -31.71,68.961 -83.44,68.961 H 4446.82 V 256.531 Z m -213.78,234.465 h 220.67 c 61.37,0 108.97,-17.234 140.68,-48.965 26.9,-26.898 41.38,-64.82 41.38,-110.336 v -1.375 c 0,-77.937 -42.07,-126.882 -103.45,-149.656 L 4757.84,8.26953 H 4633.71 L 4530.28,162.742 h -83.46 V 8.26953 H 4340.63 V 490.996" /><path
         id="path32"
         style="fill:#3c3e43;fill-opacity:1;fill-rule:nonzero;stroke:none"
         d="m 835.035,7.55078 h -10 V 491.719 h 10 V 7.55078" /><path
         id="path34"
         style="fill:#2d71c1;fill-opacity:1;fill-rule:nonzero;stroke:none"
         d="m 408.594,537.551 137.91,29.976 -52.02,-92.886 z" /><path
         id="path36"
         style="fill:#2d71c1;fill-opacity:1;fill-rule:nonzero;stroke:none"
         d="m 495.488,55.8281 -16.445,98.4809 c -1.426,8.687 -9.652,14.558 -18.359,13.113 -8.7,-1.453 -14.586,-9.68 -13.129,-18.391 L 463.078,55.8281 H 183.961 l 15.516,93.2029 c 1.461,8.711 -4.422,16.938 -13.129,18.391 -8.7,1.445 -16.938,-4.426 -18.387,-13.113 L 151.547,55.8281 H 50.7422 c 6.625,56.7699 34.8008,120.2069 79.0938,171.4689 55.766,64.539 124.555,100.086 193.672,100.086 69.152,0 137.941,-35.547 193.707,-100.086 44.262,-51.262 72.445,-114.699 79.066,-171.4689 z M 553.48,258.605 c -39.082,45.243 -84.238,78.004 -132.101,97.161 11.434,7.254 22.246,15.644 32.055,25.441 3.66,3.664 7.109,7.488 10.418,11.398 l -38.84,28.434 c -1.754,-2.019 -3.555,-4.008 -5.469,-5.922 -25.66,-25.652 -59.754,-39.769 -96.035,-39.769 -74.879,0 -135.793,60.918 -135.793,135.82 0,74.863 60.914,135.754 135.793,135.754 63.976,0 117.621,-44.5 131.933,-104.129 h 48.989 c -15.043,86.258 -90.41,152.074 -180.922,152.074 -101.285,0 -183.719,-82.414 -183.719,-183.699 0,-65.414 34.43,-122.77 86.027,-155.328 C 177.895,336.68 132.68,303.906 93.5586,258.605 34.9727,190.789 0,106.016 0,31.8555 0,18.6055 10.7422,7.89063 23.9688,7.89063 H 623.066 c 6.372,0 12.434,2.53127 16.946,7.01957 4.504,4.5156 7.023,10.6093 7.023,16.9453 0,74.1605 -34.969,158.9335 -93.555,226.7495" /></g></g></svg>